<svg version="1.1" xmlns="http://www.w3.org/2000/svg" xmlns:xlink="http://www.w3.org/1999/xlink" width="540.80698" height="290.45225" viewBox="0,0,540.80698,290.45225"><g transform="translate(30.403,-34.77518)"><g data-paper-data="{&quot;isPaintingLayer&quot;:true}" fill-rule="nonzero" stroke="none" stroke-linecap="butt" stroke-linejoin="miter" stroke-miterlimit="10" stroke-dasharray="" stroke-dashoffset="0" style="mix-blend-mode: normal"><g><path d="M263.97986,300.0613c-16.68351,6.46799 -37.47522,12.94821 -50.03828,15.99269c-30.4937,7.40334 -53.26616,9.32296 -88.99905,9.10899c-136.90376,-0.83142 -193.60566,-116.28934 -128.21049,-204.78098c37.5608,-50.79634 109.55236,-92.55095 214.94759,-84.64019c33.95389,2.50038 69.01431,6.85925 120.35475,23.4266c43.36855,13.9936 89.1091,37.16343 127.49521,70.76886c70.27368,61.52539 61.3481,142.31413 12.06788,174.7519c-27.52869,18.12015 -68.20734,28.81252 -116.46662,12.47748c-16.92192,-5.72826 -27.87105,-11.78666 -37.34684,-16.64071c-21.71484,-11.1203 -39.37649,-5.76495 -53.80414,-0.46462" fill="#502e91" stroke-width="1"/><path d="M326.87461,185.67931v60.81623h-28.66583v-56.28631c0,-13.6817 -6.11339,-19.29985 -14.18309,-19.29985c-7.10378,0 -12.53858,3.95523 -19.99695,15.98044v59.60572h-28.69025v-94.98417h28.69025v12.80765c9.15791,-11.00413 18.02842,-15.55869 29.65614,-15.55869c14.23816,0 33.18973,8.516 33.18973,36.91899zM102.50013,215.44547c0,-7.43395 -5.59376,-9.86698 -11.6277,-9.86698h-23.80563v19.74626h23.80563c6.03394,0 11.6277,-2.11522 11.6277,-9.87927zM67.13406,187.45819h21.91657c4.60951,0 11.45043,-0.21385 11.45043,-7.4154c0,-6.5224 -6.43132,-7.65403 -11.45043,-7.65403h-21.91657zM132.44973,218.2088c0,6.8654 -2.56761,15.69312 -10.79016,22.09995c-7.97801,6.12642 -16.36561,6.55968 -24.08686,6.55968h-57.94291v-98.01014h55.91326c5.6916,0.14105 10.14217,0.14105 15.28354,1.85839c8.92559,2.98949 18.51754,8.88283 18.51754,22.85189c0,9.6164 -4.84183,17.16034 -12.56306,21.13413c2.57984,1.43664 4.87849,2.57983 7.29941,4.84793c4.1999,3.70466 8.36924,9.8304 8.36924,18.65816zM406.0983,200.05803c0,-9.86094 -4.01042,-19.06159 -10.25832,-24.1296c-3.36238,-2.61725 -7.44004,-3.5628 -11.68883,-3.57036c-6.32742,0 -10.82683,1.82188 -14.89225,6.82257c-4.35889,5.17198 -7.18941,12.5692 -7.18941,21.1403c-0.03054,6.7002 1.6323,12.92976 4.81738,17.70436c4.05932,6.03406 9.70197,9.53699 17.26427,9.53699c5.83219,0 11.22421,-2.31084 15.15518,-6.93883c4.29767,-5.01286 6.79197,-12.67295 6.79197,-20.56543zM408.14053,244.17884c3.98592,1.1921 28.77581,2.46977 46.50474,-12.47138l-4.42613,31.5451c-7.90466,2.52442 -15.25293,3.56414 -21.93494,3.56414c-24.3803,0 -40.13454,-13.68171 -43.60086,-17.87558c-30.26135,-0.09774 -52.27577,-20.06412 -52.27577,-50.53345c0,-33.25693 25.10777,-50.52737 52.47756,-50.52737c22.65014,0 51.98846,13.27218 51.98846,50.74748c0,22.59523 -11.77447,39.1931 -28.87366,45.17817l0.14022,0.37266zM199.00646,187.03639c-1.73009,-8.55878 -7.88631,-15.03893 -16.59791,-15.03893c-8.89503,0 -14.91057,6.34567 -16.62236,15.03893zM182.73305,148.40595c25.55406,0 46.70653,18.72544 46.03398,52.13522c0.02945,1.47334 0.02945,2.99036 -0.04327,4.53615h-63.62839c2.0541,14.80063 12.55694,21.26846 29.00203,21.26846c11.29758,0 19.97863,-1.38769 33.09188,-11.3159v21.52535c-16.01713,12.38581 -32.89624,12.38581 -39.83498,12.38581c-31.33124,0 -51.59107,-19.07395 -51.59107,-48.33868c0,-0.50083 0,-1.02765 0.02532,-1.52844c-0.02533,-0.51295 -0.02532,-1.0207 -0.02532,-1.52848c0,-28.83688 19.48342,-49.13964 46.96933,-49.13964" fill="#ffffff" stroke-width="1.61751"/></g></g></g></svg>